<?xml version="1.0" encoding="UTF-8"?>
<svg width="177px" height="20px" viewBox="0 0 177 20" version="1.1" xmlns="http://www.w3.org/2000/svg" xmlns:xlink="http://www.w3.org/1999/xlink">
    <!-- Generator: Sketch 48.2 (47327) - http://www.bohemiancoding.com/sketch -->
    <title>dc-logo</title>
    <desc>Created with Sketch.</desc>
    <defs></defs>
    <g id="Navigation-Bar" stroke="none" stroke-width="1" fill="none" fill-rule="evenodd" transform="translate(-55.000000, -21.000000)">
        <g id="dc-logo" transform="translate(55.000000, 21.000000)" fill="#000000">
            <path d="M31.09,10.04 C31.09,5.095 36,5.04 36,5.04 L53.3,5.04 L55.685,0.0849887016 L36,0.085 C36,0.085 30.71,0.085 27.865,4 C25.035,0.04 19.68,0.085 19.68,0.085 L2.255,0.085 L0,5 L19.68,5 C19.68,5 24.59,5 24.59,9.945 C24.59,14.89 19.68,14.945 19.68,14.945 L4.785,14.945 L4.785,6.24 L0,6.28 L0,19.9150114 L19.68,19.915 C19.68,19.915 24.97,19.915 27.815,16.025 C30.65,19.96 36,19.915 36,19.915 L51.84,19.915 L54.095,15 L36,15 C36,15 31.09,15 31.09,10.04 Z" id="Shape"></path>
            <path d="M58.21,17.645 L62.065,17.645 C67.195,17.645 70.21,14.49 70.21,9.93 C70.21,5.37 67.17,2.22 62.065,2.22 L58.21,2.22 L58.21,17.645 Z M59.71,16.305 L59.71,3.555 L61.955,3.555 C66.515,3.555 68.695,6.185 68.695,9.93 C68.695,13.675 66.5,16.31 61.93,16.31 L59.71,16.305 Z" id="Shape" fill-rule="nonzero"></path>
            <path d="M72.705,11.34 L76.155,11.34 L80.06,17.65 L81.715,17.65 L77.65,11.11 C79.6598266,10.6859111 81.0734262,8.87776956 81,6.825 C81,4.215 79.185,2.22 75.85,2.22 L71.245,2.22 L71.245,17.645 L72.72,17.645 L72.72,11.34 L72.705,11.34 Z M72.705,10.045 L72.705,3.545 L75.745,3.545 C78.245,3.545 79.445,4.84 79.445,6.835 C79.445,8.83 78.265,10.055 75.745,10.055 L72.705,10.045 Z" id="Shape" fill-rule="nonzero"></path>
            <polygon id="Shape" fill-rule="nonzero" points="82.26 17.645 83.76 17.645 83.76 2.215 82.26 2.215 82.26 17.645"></polygon>
            <polygon id="Shape" fill-rule="nonzero" points="90.765 17.965 90.855 17.965 97.365 2.215 95.845 2.215 90.83 14.63 85.84 2.215 84.25 2.215 90.765 17.965"></polygon>
            <polygon id="Shape" fill-rule="nonzero" points="97.84 17.645 107.46 17.645 107.46 16.33 99.315 16.33 99.315 10.52 106.305 10.52 106.305 9.23 99.315 9.23 99.315 3.535 107.145 3.535 107.145 2.215 97.84 2.215 97.84 17.645"></polygon>
            <path d="M109.635,11.34 L113.085,11.34 L117,17.645 L118.655,17.645 L114.595,11.11 C116.600759,10.6793103 118.00728,8.87002238 117.93,6.82 C117.93,4.21 116.115,2.215 112.78,2.215 L108.175,2.215 L108.175,17.645 L109.675,17.645 L109.675,11.34 L109.635,11.34 Z M109.635,10.045 L109.635,3.545 L112.675,3.545 C115.175,3.545 116.375,4.84 116.375,6.835 C116.375,8.83 115.195,10.055 112.675,10.055 L109.635,10.045 Z" id="Shape" fill-rule="nonzero"></path>
            <path d="M117.75,14.72 C118.76314,16.7024566 120.835327,17.9161105 123.06,17.83 C125.94,17.83 127.87,16.33 127.87,13.79 C127.87,11.475 126.53,10.34 124.06,9.185 L122.835,8.595 C120.95,7.71 120.115,7.145 120.115,5.67 C120.115,4.31 121.16,3.33 122.725,3.33 C124.003835,3.24464141 125.216425,3.90747192 125.835,5.03 L126.97,4.305 C126.015,2.76 124.7,2.035 122.705,2.035 C120.39,2.035 118.665,3.51 118.665,5.71 C118.665,7.91 120.025,8.885 122.25,9.93 L123.5,10.5 C125.36,11.36 126.405,12.11 126.405,13.815 C126.405,15.425 125.155,16.47 123.045,16.47 C121.342485,16.5225851 119.764225,15.582262 119,14.06 L117.75,14.72 Z" id="Shape" fill-rule="nonzero"></path>
            <path d="M139.18,17.83 C141.704118,17.9201703 144.112157,16.7675247 145.625,14.745 L144.47,13.93 C143.247249,15.5929725 141.288447,16.552767 139.225,16.5 C135.57,16.5 132.87,13.73 132.87,9.945 C132.87,6.16 135.5,3.375 139.11,3.375 C141.044208,3.30988946 142.889054,4.19034202 144.055,5.735 L145.19,4.92 C143.754262,3.03691063 141.49677,1.96404344 139.13,2.04 C137.03288,2.00216978 135.011756,2.82481545 133.537153,4.31642212 C132.06255,5.8080288 131.26313,7.83845133 131.325,9.935 C131.262635,12.0395249 132.068131,14.0771524 133.552647,15.5701784 C135.037163,17.0632044 137.070153,17.8803347 139.175,17.83 L139.18,17.83 Z" id="Shape" fill-rule="nonzero"></path>
            <polygon id="Shape" fill-rule="nonzero" points="146.665 17.645 155.31 17.645 155.31 16.33 148.14 16.33 148.14 2.215 146.665 2.215 146.665 17.645"></polygon>
            <path d="M160.13,17.925 C163.24,17.925 165.575,16.085 165.575,12.5 L165.575,2.31 L164.075,2.31 L164.075,12.385 C164.075,15.175 162.53,16.585 160.105,16.585 C157.68,16.585 156.135,15.18 156.135,12.385 L156.135,2.31 L154.635,2.31 L154.635,12.5 C154.635,16.085 156.975,17.925 160.08,17.925 L160.13,17.925 Z" id="Shape" fill-rule="nonzero"></path>
            <path d="M166.63,17.645 L172.13,17.645 C175.305,17.645 176.985,15.85 176.985,13.4 C176.985,11.265 175.83,10.04 173.92,9.565 C175.51,9.065 176.21,7.75 176.21,6.16 C176.21,3.96 174.76,2.21 171.805,2.21 L166.63,2.21 L166.63,17.645 Z M168.13,9.02 L168.13,3.5 L171.715,3.5 C173.87,3.5 174.8,4.68 174.8,6.245 C174.8,7.81 173.935,9 171.965,9 L168.13,9.02 Z M168.13,16.35 L168.13,10.25 L171.99,10.25 C174.35,10.25 175.53,11.475 175.53,13.315 C175.53,15.155 174.42,16.355 172.03,16.355 L168.13,16.35 Z" id="Shape" fill-rule="nonzero"></path>
        </g>
    </g>
</svg>